<?xml version="1.0" encoding="UTF-8"?>
<svg width="49px" height="60px" viewBox="0 0 49 60" version="1.1" xmlns="http://www.w3.org/2000/svg" xmlns:xlink="http://www.w3.org/1999/xlink">
    <!-- Generator: Sketch 49.1 (51147) - http://www.bohemiancoding.com/sketch -->
    <title>Page 1</title>
    <desc>Created with Sketch.</desc>
    <defs></defs>
    <g id="Page-1" stroke="none" stroke-width="1" fill="none" fill-rule="evenodd">
        <g id="ABOUT" transform="translate(-852.000000, -4987.000000)" fill="#D9B0B9">
            <g id="Page-1" transform="translate(876.500000, 5013.500000) rotate(30.000000) translate(-876.500000, -5013.500000) translate(865.000000, 4980.000000)">
                <path d="M17.6942347,23.7964038 C15.5348362,23.6730903 13.4385004,23.6243434 11.4053005,23.6386812 C9.37210064,23.6243434 7.27290162,23.6730977 5.1163663,23.7964038 C4.70054224,23.8193456 4.287596,23.845158 3.87750558,23.876704 C3.79720538,25.0209341 3.75419213,26.2426159 3.77140037,27.538813 C3.80294635,29.8874726 4.02376088,32.0182397 4.32487562,33.8908098 L11.4052858,33.8908098 L18.485696,33.8908098 C18.7868107,32.0181662 19.0076253,29.8874726 19.0391713,27.538813 C19.0563795,26.2426159 19.0162294,25.0180709 18.9330661,23.876704 C18.522983,23.845158 18.1100221,23.819353 17.6942053,23.7964038 L17.6942347,23.7964038 Z" id="Fill-1"></path>
                <path d="M22.2532421,26.4378384 C22.244638,24.6913935 22.1987543,23.1113046 22.0639736,21.3247023 C21.9750766,20.1317253 21.8718346,19.1796195 21.7800671,18.3995961 C21.7055079,17.7457566 21.6366823,17.1693248 21.5764608,16.6560144 C21.4789597,14.333123 21.4617515,12.4547532 21.464622,11.1958504 C21.4674851,8.74969701 21.5363107,7.44770028 21.4158677,5.25100751 C21.3269708,3.65366639 21.1807155,2.36319565 21.0774734,1.55446737 C21.0029142,1.45409579 20.4867185,0.785896533 19.5804892,0.734286513 C18.4563745,0.665460918 17.7996131,1.60607739 17.7680451,1.65196112 C17.6820113,2.84207496 17.638998,4.12681941 17.670544,5.49474189 C17.6877522,6.18873148 17.7192982,6.85693808 17.7680451,7.4993103 C17.7881165,7.55092766 17.8110583,7.59968188 17.8311371,7.65129924 C17.1056015,7.19533242 16.43172,7.00319338 16.0588505,6.92289319 C15.5770713,6.81965112 15.0723135,6.72788366 14.5389611,6.65332443 C13.4348884,6.49273138 12.4054043,6.4210353 11.4676143,6.40669755 L11.4676143,6.40382706 L11.3443008,6.40382706 L11.3443008,6.40669755 C10.4065842,6.4210353 9.37702672,6.49273138 8.27295404,6.65332443 C7.74242066,6.73075415 7.23480711,6.82252161 6.75306465,6.92289319 C6.27128548,7.02899839 5.29051157,7.31003441 4.34420552,8.11873332 C3.36346831,8.95609304 2.93326245,9.91965138 2.75831697,10.384215 C2.28514192,11.4739719 1.98401984,12.431804 1.7861692,13.1859857 C1.50799633,14.2441746 1.34740327,15.629276 1.02618779,18.4024152 C0.937290819,19.1824386 0.834048755,20.1345444 0.742281295,21.3275214 C0.60750059,23.1141237 0.561616859,24.6942126 0.553012742,26.4406574 C0.527200391,31.6398347 0.834048755,39.6639815 0.851256989,40.1455771 C1.08067564,48.1638507 1.31296478,56.1791878 1.54238343,64.1945249 C1.53377931,64.3350466 1.4964997,65.4276593 2.37688001,66.2019565 C3.13392485,66.8672706 4.0286943,66.8213868 4.20077665,66.8099122 C6.60104635,66.7869704 9.00138946,66.766896 11.4016592,66.7439542 C13.8019289,66.766896 16.202272,66.7869704 18.6025417,66.8099122 C18.7746093,66.8213832 19.6693201,66.8672669 20.4264383,66.2019565 C21.3039555,65.4276593 21.2695243,64.3350392 21.2609349,64.1945249 C21.4903536,56.1762513 21.7226427,48.1609142 21.9520613,40.1455771 C21.9750032,39.6609274 22.2818516,31.6368981 22.2531761,26.4377209 L22.2532421,26.4378384 Z M17.292073,11.4709326 C18.0405284,11.4709326 18.6456797,12.0760252 18.6456797,12.8245393 C18.6456797,13.5730535 18.0405871,14.1781461 17.292073,14.1781461 C16.5436176,14.1781461 15.9384662,13.5730535 15.9384662,12.8245393 C15.9384662,12.0760252 16.5435588,11.4709326 17.292073,11.4709326 Z M5.62585924,60.5467023 C4.47590283,60.816271 3.40626131,60.4520643 3.23704212,59.7351109 C3.07071543,59.0181794 3.86794708,58.2180846 5.01791816,57.9513717 C6.16787457,57.6818029 7.23751609,58.0460096 7.40673529,58.7629631 C7.57306197,59.4770314 6.77583032,60.2771262 5.62585924,60.5467023 Z M5.32188136,56.2508105 C3.9425063,56.2508105 2.82411791,55.5539504 2.82411791,54.69649 C2.82411791,53.8361517 3.9425063,53.1421694 5.32188136,53.1421694 C6.70125641,53.1421694 7.81964481,53.8390295 7.81964481,54.69649 C7.81964481,55.5568283 6.70125641,56.2508105 5.32188136,56.2508105 Z M5.32188136,52.1700216 C3.9425063,52.1700216 2.82411791,51.4731616 2.82411791,50.6157011 C2.82411791,49.7553628 3.9425063,49.0613806 5.32188136,49.0613806 C6.70125641,49.0613806 7.81964481,49.7582406 7.81964481,50.6157011 C7.81964481,51.4731763 6.70125641,52.1700216 5.32188136,52.1700216 Z M5.32188136,48.0605279 C3.9425063,48.0605279 2.82411791,47.3636679 2.82411791,46.5062074 C2.82411791,45.6458691 3.9425063,44.9518868 5.32188136,44.9518868 C6.70125641,44.9518868 7.81964481,45.6487469 7.81964481,46.5062074 C7.81964481,47.3636825 6.70125641,48.0605279 5.32188136,48.0605279 Z M7.72215106,39.2479151 C7.36941897,39.8730791 6.17069366,39.8673455 5.04371583,39.2307069 C3.91666459,38.5969388 3.2886815,37.5731663 3.64429876,36.947973 C3.99703086,36.322809 5.19575616,36.3285426 6.32273399,36.9651812 C7.44684868,37.5989493 8.07490518,38.6198586 7.72215106,39.2479151 Z M11.5448164,60.3918722 C10.1654413,60.3918722 9.04705295,59.6950121 9.04705295,58.8375517 C9.04705295,57.9772134 10.1654413,57.2832311 11.5448164,57.2832311 C12.9241915,57.2832311 14.0425799,57.9800912 14.0425799,58.8375517 C14.0425799,59.6950121 12.9241915,60.3918722 11.5448164,60.3918722 Z M11.5448164,56.2508839 C10.1654413,56.2508839 9.04705295,55.5540238 9.04705295,54.6965634 C9.04705295,53.8362251 10.1654413,53.1422428 11.5448164,53.1422428 C12.9241915,53.1422428 14.0425799,53.8391029 14.0425799,54.6965634 C14.0425799,55.5569017 12.9241915,56.2508839 11.5448164,56.2508839 Z M11.5448164,52.1700951 C10.1654413,52.1700951 9.04705295,51.473235 9.04705295,50.6157745 C9.04705295,49.7554362 10.1654413,49.061454 11.5448164,49.061454 C12.9241915,49.061454 14.0425799,49.758314 14.0425799,50.6157745 C14.0425799,51.4732497 12.9241915,52.1700951 11.5448164,52.1700951 Z M11.5448164,48.0606013 C10.1654413,48.0606013 9.04705295,47.3637413 9.04705295,46.5062808 C9.04705295,45.6459425 10.1654413,44.9519603 11.5448164,44.9519603 C12.9241915,44.9519603 14.0425799,45.6488203 14.0425799,46.5062808 C14.0425799,47.3637559 12.9241915,48.0606013 11.5448164,48.0606013 Z M14.0425799,40.1568535 C13.6583018,40.3805385 12.7234043,40.8565767 11.4501858,40.8221676 C11.435848,40.8221676 11.421503,40.8193044 11.4043021,40.8193044 C11.3899643,40.8193044 11.3756192,40.8221676 11.3584183,40.8221676 C10.0851265,40.8594472 9.15027299,40.3805385 8.76602428,40.1568535 C8.83771302,39.7238285 8.89220821,39.1302325 8.81190801,38.4361769 C8.74881605,37.8827016 8.61976897,37.4181454 8.4907219,37.059665 C8.93235097,36.8474546 9.65499402,36.5549439 10.5899209,36.4402346 C10.598525,36.4402346 10.6071218,36.4373641 10.6128628,36.4373641 C10.6788179,36.4287674 10.7476435,36.4230264 10.8164691,36.4172928 C10.83367,36.4144223 10.8508782,36.4144223 10.8680864,36.4115591 C10.9283079,36.4058255 10.9885294,36.402955 11.0516214,36.4000845 C11.0745632,36.3972214 11.1003756,36.3972214 11.1233174,36.3972214 C11.1405183,36.3972214 11.1577266,36.3943509 11.1749348,36.3943509 C11.2064808,36.3943509 11.2380268,36.3943509 11.2695728,36.3914804 C11.312586,36.3914804 11.3584697,36.3886173 11.4014903,36.3886173 C11.447374,36.3886173 11.4903873,36.3886173 11.5334079,36.3914804 C11.5649539,36.3914804 11.5964925,36.3914804 11.6280458,36.3943509 C11.6452467,36.3943509 11.6624549,36.3972214 11.6796632,36.3972214 C11.702605,36.3972214 11.7284174,36.4000845 11.7513593,36.4000845 C11.8144439,36.402955 11.8746727,36.4086886 11.9348942,36.4115591 C11.9520951,36.4144223 11.9693033,36.4144223 11.9865115,36.4172928 C12.0553371,36.4230264 12.1241627,36.4316305 12.1901178,36.4373641 C12.198722,36.4373641 12.2073261,36.4402346 12.2130597,36.4402346 C13.1479132,36.5549439 13.8734634,36.8445841 14.3122587,37.059665 C14.1832117,37.4181307 14.0541646,37.882709 13.9910726,38.4361769 C13.9165134,39.1301665 13.9709939,39.7237845 14.04269,40.1568535 L14.0425799,40.1568535 Z M19.8497716,59.7319541 C19.6834449,60.4488855 18.613774,60.8131216 17.4609545,60.5435455 C16.3109981,60.2739767 15.5137958,59.4767671 15.6800784,58.7598063 C15.8464051,58.0428748 16.916076,57.6786388 18.0688955,57.9482149 C19.2217151,58.2177836 20.0189174,59.0178564 19.8497716,59.7319541 Z M17.7649617,56.2505168 C16.3855867,56.2505168 15.2671983,55.5536568 15.2671983,54.6961963 C15.2671983,53.835858 16.3855867,53.1418758 17.7649617,53.1418758 C19.1443368,53.1418758 20.2627252,53.8387358 20.2627252,54.6961963 C20.2627252,55.5565346 19.1443368,56.2505168 17.7649617,56.2505168 Z M17.7649617,52.169728 C16.3855867,52.169728 15.2671983,51.4728679 15.2671983,50.6154074 C15.2671983,49.7550691 16.3855867,49.0610869 17.7649617,49.0610869 C19.1443368,49.0610869 20.2627252,49.757947 20.2627252,50.6154074 C20.2627252,51.4728826 19.1443368,52.169728 17.7649617,52.169728 Z M17.7649617,48.0602343 C16.3855867,48.0602343 15.2671983,47.3633742 15.2671983,46.5059137 C15.2671983,45.6455754 16.3855867,44.9515932 17.7649617,44.9515932 C19.1443368,44.9515932 20.2627252,45.6484533 20.2627252,46.5059137 C20.2627252,47.3633889 19.1443368,48.0602343 17.7649617,48.0602343 Z M17.4609838,40.6211968 C17.5584849,40.8190695 17.7678322,41.1718016 18.1721817,41.4442408 C18.3614502,41.5732879 18.542122,41.6507176 18.68837,41.6994718 C18.4589513,42.4221443 18.2295327,43.1477092 18.000114,43.8703229 C17.6846615,43.815835 17.1225968,43.6724502 16.5662658,43.2508925 C15.7002012,42.597053 15.4248988,41.7108877 15.3474471,41.409817 L17.4609838,40.6211968 Z M16.0098833,37.7935844 C16.1962887,37.5440944 16.7784542,36.8214366 17.8223274,36.5317451 C18.4933751,36.3453397 19.0697775,36.4199063 19.3823742,36.4858614 C19.3278864,37.2429062 19.276269,38.0000245 19.2217812,38.7571428 C19.0669217,38.7485386 18.8690491,38.7542723 18.6482345,38.8030265 C18.172189,38.9091317 17.8481691,39.1586291 17.6846762,39.3077475 L16.0098833,37.7935844 Z M20.5953932,27.2718944 C20.4548715,30.10237 20.1021395,32.6402909 19.6748555,34.8313308 C19.0496915,34.7567716 17.8595483,34.713751 16.5863298,35.2930386 C16.0816088,35.5224572 15.6772446,35.7977596 15.3675111,36.0500834 C14.670651,35.6858841 13.2941538,35.0836619 11.4645309,35.0463676 C9.43705732,35.0062175 7.92003107,35.6772726 7.20879654,36.0500834 C6.85893494,35.7776515 6.21939649,35.3532234 5.31038473,35.1295457 C4.2837638,34.8743147 3.42628864,35.0033691 2.97890392,35.1037407 C2.48852063,33.0963091 2.04691359,30.6903131 1.84040009,27.951605 C1.64252743,25.3305061 1.7027489,22.9789833 1.8662051,20.9887306 C4.26074852,20.3004746 6.95070974,19.6638287 9.9131102,19.1734234 C13.7271861,18.5425184 17.2143496,18.2815905 20.265948,18.2241808 C20.5814005,20.7879434 20.7649354,23.8420379 20.5957383,27.2717183 L20.5953932,27.2718944 Z" id="Fill-2"></path>
            </g>
        </g>
    </g>
</svg>