<?xml version="1.0" encoding="UTF-8"?>
<svg width="39px" height="41px" viewBox="0 0 39 41" version="1.1" xmlns="http://www.w3.org/2000/svg" xmlns:xlink="http://www.w3.org/1999/xlink">
    <!-- Generator: Sketch 49.1 (51147) - http://www.bohemiancoding.com/sketch -->
    <title>Page 1</title>
    <desc>Created with Sketch.</desc>
    <defs></defs>
    <g id="Page-1" stroke="none" stroke-width="1" fill="none" fill-rule="evenodd">
        <g id="MENU" transform="translate(-420.000000, -172.000000)" fill="#FFB5A7">
            <path d="M449.139511,174.789258 C445.418292,174.789258 441.324753,178.758558 441.20091,179.00664 C441.07687,179.13068 440.952829,179.13068 440.704748,179.00664 C440.580707,178.882599 436.487366,174.789258 432.766147,174.789258 C426.688354,174.789258 421.726729,180.495127 421.726729,187.441403 C421.726729,200.837792 438.720098,212.001449 439.340499,212.497611 C439.712621,212.745693 440.332824,212.869733 440.953028,212.869733 C441.573231,212.869733 442.069393,212.745693 442.565556,212.373571 C443.3098,211.877408 460.179326,200.713751 460.179326,187.317362 C460.179326,180.371087 455.217701,174.789456 449.139908,174.789456 L449.139511,174.789258 Z" id="Page-1" transform="translate(440.953028, 193.829496) rotate(-17.000000) translate(-440.953028, -193.829496) "></path>
        </g>
    </g>
</svg>