<?xml version="1.0" encoding="UTF-8"?>
<svg width="22px" height="13px" viewBox="0 0 22 13" version="1.1" xmlns="http://www.w3.org/2000/svg" xmlns:xlink="http://www.w3.org/1999/xlink">
    <!-- Generator: Sketch 49.3 (51167) - http://www.bohemiancoding.com/sketch -->
    <title>Page 1</title>
    <desc>Created with Sketch.</desc>
    <defs></defs>
    <g id="Page-1" stroke="none" stroke-width="1" fill="none" fill-rule="evenodd">
        <g id="iPhone-8-Plus" transform="translate(-181.000000, -300.000000)" fill="#1C1537">
            <path d="M181.47313,300.000701 C181.278838,300.01187 181.107011,300.138776 181.035727,300.32761 C180.963478,300.516446 181.002532,300.73067 181.137267,300.87788 L191.634941,312.8335 C191.729647,312.940102 191.86243,313 192.002059,313 C192.141688,313 192.274449,312.9401 192.369178,312.8335 L202.866851,300.87788 C203.05431,300.666707 203.042593,300.337772 202.839513,300.142843 C202.636433,299.947915 202.320103,299.960099 202.132644,300.171272 L192.002139,311.712603 L181.871635,300.171272 C181.770095,300.054517 181.623642,299.992587 181.473273,300.000709 L181.47313,300.000701 Z" id="Page-1" transform="translate(192.000000, 306.500000) rotate(-180.000000) translate(-192.000000, -306.500000) "></path>
        </g>
    </g>
</svg>