<?xml version="1.0" encoding="UTF-8"?>
<svg width="33px" height="15px" viewBox="0 0 33 15" version="1.1" xmlns="http://www.w3.org/2000/svg" xmlns:xlink="http://www.w3.org/1999/xlink">
    <!-- Generator: Sketch 49.3 (51167) - http://www.bohemiancoding.com/sketch -->
    <title>Page 1</title>
    <desc>Created with Sketch.</desc>
    <defs></defs>
    <g id="Page-1" stroke="none" stroke-width="1" fill="none" fill-rule="evenodd">
        <g id="iPhone-8-Plus" transform="translate(-165.000000, -40.000000)" fill="#1C1537">
            <g id="Page-1" transform="translate(165.000000, 40.000000)">
                <path d="M32.7409692,0 L0.259030754,0 C0.103208214,0 0,0.19922 0,0.5 C0,0.80078 0.103208214,1 0.259030754,1 L32.7409692,1 C32.8967918,1 33,0.80078 33,0.5 C33,0.19922 32.8967918,0 32.7409692,0 Z" id="Fill-2"></path>
                <path d="M32.7409692,14 L0.259030754,14 C0.103208214,14 0,14.19922 0,14.5 C0,14.80078 0.103208214,15 0.259030754,15 L32.7409692,15 C32.8967918,15 33,14.80078 33,14.5 C33,14.19922 32.8967918,14 32.7409692,14 Z" id="Fill-3"></path>
            </g>
        </g>
    </g>
</svg>