<?xml version="1.0" encoding="UTF-8"?>
<svg width="48px" height="47px" viewBox="0 0 48 47" version="1.1" xmlns="http://www.w3.org/2000/svg" xmlns:xlink="http://www.w3.org/1999/xlink">
    <!-- Generator: Sketch 49.1 (51147) - http://www.bohemiancoding.com/sketch -->
    <title>Page 1</title>
    <desc>Created with Sketch.</desc>
    <defs></defs>
    <g id="Page-1" stroke="none" stroke-width="1" fill="none" fill-rule="evenodd">
        <g id="ABOUT" transform="translate(-802.000000, -1048.000000)" fill="#1C1537">
            <path d="M803.262398,1066.30539 L812.620266,1072.96263 C813.689371,1073.72287 814.137051,1075.07126 813.729071,1076.30133 L810.153381,1087.07583 C809.241047,1089.82817 812.457838,1092.11646 814.849191,1090.41638 L824.20706,1083.75915 C825.276164,1082.99706 826.723075,1082.99706 827.792228,1083.75915 L837.150096,1090.41638 C839.54145,1092.11623 842.758435,1089.82817 841.845907,1087.07583 L838.272103,1076.30133 C837.862207,1075.07126 838.309878,1073.72287 839.380907,1072.96263 L848.736842,1066.30539 C851.126309,1064.60365 849.900386,1060.90062 846.944282,1060.90062 L835.376541,1060.90062 C834.056178,1060.90062 832.88127,1060.06642 832.475176,1058.83635 L828.901371,1048.06564 C827.987151,1045.31145 824.013055,1045.31145 823.096708,1048.06564 L819.521017,1058.83635 C819.114904,1060.06642 817.943787,1060.90062 816.621538,1060.90062 L805.05573,1060.90062 C802.099578,1060.90062 800.873703,1064.6037 803.263171,1066.30539 L803.262398,1066.30539 Z" id="Page-1" transform="translate(826.000000, 1068.500000) rotate(-30.000000) translate(-826.000000, -1068.500000) "></path>
        </g>
    </g>
</svg>