<?xml version="1.0" encoding="UTF-8"?>
<svg width="809px" height="827px" viewBox="0 0 809 827" version="1.1" xmlns="http://www.w3.org/2000/svg" xmlns:xlink="http://www.w3.org/1999/xlink">
    <!-- Generator: Sketch 49.1 (51147) - http://www.bohemiancoding.com/sketch -->
    <title>Group 33</title>
    <desc>Created with Sketch.</desc>
    <defs></defs>
    <g id="Page-1" stroke="none" stroke-width="1" fill="none" fill-rule="evenodd">
        <g id="Group" transform="translate(0.000000, -27.000000)">
            <g id="Group-33" transform="translate(0.000000, 27.000000)">
                <path d="M404.935074,826.818359 L404.935074,826.854858 L33.9754951,512.718485 L0.935073823,264.53885 L160.013513,65.5486346 L404.935074,0.614462641 L649.856635,65.5486346 L808.935074,264.53885 L775.894653,512.718485 L404.935074,826.818359 Z M398,9.29882812 L169.766359,68.8377095 L255.708312,173.452143 L398,173.452143 L398,9.29882812 Z M411.766359,8.796875 L411.766359,173.452143 L555.044375,173.452143 L640.986328,68.8377095 L411.766359,8.796875 Z M398.030878,185.395007 L258.930313,185.395007 L159.367187,406.548828 L398.030878,185.395007 Z M413.367187,185.395007 L652.030878,406.548828 L552.467753,185.395007 L413.367187,185.395007 Z M160.642578,76.0605469 L9.78125,266.517578 L148.414062,400.933594 L246.976491,181.375724 L160.642578,76.0605469 Z M10.2363281,280.916016 L42.4306641,502.148438 L142.578125,412.898438 L10.2363281,280.916016 Z M798.578125,280.916016 L666.236328,412.898437 L766.383789,502.148437 L798.578125,280.916016 Z M649.910084,76.0605469 L563.576172,181.375724 L662.1386,400.933594 L799.183594,265.816406 L649.910084,76.0605469 Z M404.869141,194.269531 L164.855469,417.84375 L404.869141,593.710938 L644.882813,417.84375 L404.869141,194.269531 Z M170.742188,437.804688 L398.128906,804.441406 L398.128906,606.654297 L170.742188,437.804688 Z M147.320312,424.390625 L50.9101562,512.183594 L370.652344,780.910156 L147.320312,424.390625 Z M664.242188,424.390625 L440.910156,780.910156 L760.652344,512.183594 L664.242188,424.390625 Z M640.742187,438.804688 L412,606.759766 L412,804.423828 L640.742187,438.804688 Z" id="Combined-Shape" fill="#1C1537"></path>
                <polygon id="Path-54" fill-opacity="0.7" fill="#F5E3E7" points="405.347656 7 170 68.5585938 256.248047 173.238281 555.931641 173.238281 641.0625 68.5585938"></polygon>
            </g>
        </g>
    </g>
</svg>