<?xml version="1.0" encoding="UTF-8"?>
<svg width="2090px" height="880px" viewBox="0 0 2090 880" version="1.1" xmlns="http://www.w3.org/2000/svg" xmlns:xlink="http://www.w3.org/1999/xlink">
    <!-- Generator: Sketch 49.1 (51147) - http://www.bohemiancoding.com/sketch -->
    <title>Group 5</title>
    <desc>Created with Sketch.</desc>
    <defs></defs>
    <g id="Page-1" stroke="none" stroke-width="1" fill="none" fill-rule="evenodd">
        <g id="Group" transform="translate(-1088.000000, 0.000000)">
            <g id="Group-5" transform="translate(1088.000000, 0.000000)">
                <path d="M271,764 C271,731.786471 282.258467,704.399768 304.776167,681.839891 C327.293868,659.280015 354.629371,648 386.782677,648 C398.198705,648 409.143431,649.600232 419.616855,652.800543 C430.090279,656.000853 438.757046,659.857027 445.617156,664.369064 C452.477267,668.881101 458.499405,673.445551 463.683725,678.062415 C468.868044,682.679279 472.612224,686.61415 474.916417,689.867028 L478.529731,694.746269 L462.34837,709.226594 C461.719967,708.177244 460.777364,706.786974 459.520559,705.055631 C458.263754,703.324288 455.331159,700.255088 450.722926,695.848033 C446.114693,691.440977 441.113708,687.53239 435.719973,684.122117 C430.326237,680.711844 423.230475,677.590231 414.432842,674.757123 C405.635209,671.924016 396.41859,670.507463 386.783138,670.507463 C361.01864,670.507463 339.286443,679.478969 321.586391,697.421981 C303.88634,715.364993 295.036391,737.557666 295.036391,764 C295.036391,790.442334 303.88634,812.635007 321.586391,830.578019 C339.286443,848.521031 361.01864,857.492537 386.783138,857.492537 C396.41859,857.492537 405.635209,856.154681 414.432842,853.478969 C423.230475,850.803256 430.535653,847.576662 436.348375,843.799186 C442.161097,840.02171 447.266866,836.270517 451.665683,832.545455 C456.064499,828.820392 459.206511,825.541384 461.091718,822.708277 L464.07663,818.773406 L480.10089,833.411126 C479.263072,834.670285 477.980032,836.322931 476.251926,838.369064 C474.523819,840.415197 470.701089,844.113976 464.783582,849.4654 C458.866076,854.816825 452.608286,859.591084 446.010061,863.788331 C439.411836,867.985578 430.745069,871.736771 420.009913,875.042062 C409.274757,878.347354 398.199165,880 386.783138,880 C354.629832,880 327.294328,868.719985 304.776628,846.160109 C282.258927,823.600232 271,796.213529 271,764 Z M557.989842,764 C557.989842,790.442334 566.839791,812.635007 584.539842,830.578019 C602.239894,848.521031 623.972091,857.492537 649.736589,857.492537 C675.501086,857.492537 697.233284,848.521031 714.933335,830.578019 C732.633387,812.635007 741.483335,790.442334 741.483335,764 C741.483335,737.557666 732.633387,715.364993 714.933335,697.421981 C697.233284,679.478969 675.501086,670.507463 649.736589,670.507463 C623.972091,670.507463 602.239894,679.478969 584.539842,697.421981 C566.839791,715.364993 557.989842,737.557666 557.989842,764 Z M765.519726,764 C765.519726,796.213529 754.260799,823.600232 731.743099,846.160109 C709.225398,868.719985 681.889895,880 649.736589,880 C617.583283,880 590.247779,868.719985 567.730079,846.160109 C545.212378,823.600232 533.953451,796.213529 533.953451,764 C533.953451,731.786471 545.212378,704.399768 567.730079,681.839891 C590.247779,659.280015 617.583283,648 649.736589,648 C681.889895,648 709.225398,659.280015 731.743099,681.839891 C754.260799,704.399768 765.519726,731.786471 765.519726,764 Z M1051.09566,693.17232 L960.919922,812.320217 L870.901282,693.17232 L870.901282,876.852103 L846.707791,876.852103 L846.707791,651.147897 L867.60217,651.147897 L960.919922,773.75848 L1054.23767,651.147897 L1075.13205,651.147897 L1075.13205,876.852103 L1051.09566,876.852103 L1051.09566,693.17232 Z M1170.77337,651.147897 L1256.079,651.148051 C1276.92106,651.148051 1294.20212,657.916029 1307.92219,671.451985 C1321.64226,684.987942 1328.50237,701.855474 1328.50237,722.054428 C1328.50237,742.253382 1321.61618,759.147044 1307.84364,772.735414 C1294.0711,786.323784 1276.81627,793.118046 1256.079,793.118046 L1194.96686,793.118046 L1194.96686,876.852103 L1170.77337,876.852103 L1170.77337,651.147897 Z M1256.079,673.812908 L1194.96686,673.812908 L1194.96686,770.453342 L1256.079,770.453342 C1270.63703,770.453342 1282.31479,766.046287 1291.11243,757.232175 C1299.91006,748.418064 1304.30888,736.718432 1304.30888,722.133125 C1304.30888,707.547818 1299.91006,695.848186 1291.11243,687.034075 C1282.31479,678.219964 1270.63703,673.812908 1256.079,673.812908 Z M1510.86322,791.386703 L1467.50345,684.987788 L1423.98659,791.386703 L1510.86322,791.386703 Z M1520.60345,814.05156 L1414.40345,814.05156 L1388.63895,876.852103 L1362.87446,876.852103 L1456.19221,651.147897 L1478.65759,651.147897 L1571.97535,876.852103 L1546.36795,876.852103 L1520.60345,814.05156 Z M1801.15217,651.147897 L1825.18856,651.147897 L1825.18856,876.852103 L1804.29418,876.852103 L1666.04566,694.746269 L1666.04566,876.852103 L1641.85217,876.852103 L1641.85217,651.147897 L1662.74655,651.147897 L1801.15217,833.411126 L1801.15217,651.147897 Z M1988.38313,772.027137 L1989.95414,772.027137 L2057.5074,651.147897 L2085,651.147897 L2001.26538,797.839891 L2001.26538,876.852103 L1977.07189,876.852103 L1977.07189,797.839891 L1893.49438,651.147897 L1920.82988,651.147897 L1988.38313,772.027137 Z" id="COMPANY" fill="#1C1537"></path>
                <path d="M75.0115753,86.9340952 L75.0119509,0 L126.173692,0 L126.173692,126.169837 L208.878762,126.169837 L208.878762,177.330168 L126.173692,177.330168 L126.173692,401.974024 C126.173692,441.466334 143.22748,461.084205 177.335433,460.827637 C185.798277,460.827637 194.196884,459.801741 202.531629,457.750324 C210.866374,455.698908 217.213507,453.903683 221.573029,452.365026 L228.497174,449.287713 L228.497174,500.448044 C212.853609,508.397894 195.030471,512.244536 175.027385,511.987968 C142.458131,511.987968 117.00536,502.4356 98.6690721,483.33049 C80.332784,464.225379 71.1648278,437.106557 71.1648278,401.974024 L71.1648278,177.330168 L0,177.330168 L0,126.169837 L43.4682462,126.169837 C64.4972574,126.169837 75.0115753,113.091257 75.0115753,86.9340952 Z M695.026623,335.811793 L387.672253,335.041713 C389.723727,369.148725 403.764355,398.639768 429.794138,423.51484 C455.823921,448.389913 486.405563,460.827262 521.539064,460.827262 C545.132324,460.827262 567.058784,455.57006 587.318446,445.056032 C607.578108,434.542004 621.939173,424.027976 630.402017,413.513949 L643.865633,398.127383 L679.25571,433.516484 C677.717011,435.567901 675.4732,438.452882 672.523902,442.171427 C669.574604,445.889972 663.163233,452.172694 653.289789,461.01997 C643.416345,469.867245 632.773552,477.688624 621.361409,484.484482 C609.949267,491.28034 595.203527,497.563063 577.123814,503.333025 C559.044101,509.102987 540.515475,511.987968 521.538313,511.987968 C469.991897,511.987968 425.626202,492.818997 388.440851,454.480679 C351.255501,416.142362 332.663013,369.662237 332.663013,315.039929 C332.663013,260.417622 351.063163,213.937497 387.863839,175.599179 C424.664515,137.260861 467.940424,118.09189 517.691566,118.09189 C569.237982,118.09189 612.321553,135.978773 646.94228,171.752538 C681.563007,207.526303 698.873371,252.724339 698.873371,307.346646 L695.026623,335.811793 Z M517.692317,169.636134 C484.610289,169.636134 455.759683,181.304154 431.140499,204.64057 C406.521316,227.976986 392.031775,255.672804 387.672253,287.728024 L643.865633,287.728024 C639.762311,253.621012 625.978258,225.412434 602.513098,203.101914 C579.047939,180.791394 550.774345,169.636134 517.692317,169.636134 Z M948.831314,287.728775 L1094.62454,263.877721 C1094.62454,235.925335 1085.77703,213.23015 1068.08199,195.792168 C1050.38695,178.354186 1027.69114,169.635007 999.994557,169.635007 C979.991471,169.635007 961.206646,174.18674 943.639707,183.290584 C926.072769,192.394427 913.314265,201.690602 905.364195,211.179109 L893.439277,224.642354 L858.049201,189.253253 C859.5879,187.201837 861.703611,184.573423 864.396334,181.368014 C867.089057,178.162605 872.987278,172.520739 882.091373,164.442792 C891.195467,156.364845 900.748098,149.120462 910.749641,142.709268 C920.751184,136.298074 933.894363,130.592348 950.178802,125.591714 C966.463241,120.59108 983.068493,118.090763 999.994182,118.090763 C1043.07775,118.090763 1078.78827,132.066769 1107.1261,160.019155 C1135.46393,187.97154 1149.63266,222.591313 1149.63266,263.878472 L1149.63266,504.293558 L1094.62417,504.293558 L1094.62417,453.133228 C1093.59824,454.671884 1091.99531,456.787537 1089.81536,459.480186 C1087.63541,462.172835 1082.76274,466.916901 1075.19734,473.712759 C1067.63195,480.508618 1059.48954,486.535148 1050.77012,491.792349 C1042.0507,497.049551 1030.5747,501.729757 1016.34173,505.832966 C1002.10877,509.936175 987.426888,511.987592 972.296473,511.987592 C934.598348,511.987592 902.862682,500.832332 877.089474,478.521812 C851.316266,456.211292 838.429662,430.695363 838.429662,401.973649 C838.429662,370.431189 847.918431,344.97912 866.895593,325.617817 C885.872755,306.256514 913.184662,293.626834 948.831314,287.728775 Z M972.297976,460.825759 C1007.94463,460.825759 1037.24415,449.158115 1060.19653,425.821698 C1083.14892,402.485282 1094.62492,372.224911 1094.62492,335.040586 L1094.62492,311.19141 L964.604857,335.040586 C917.417963,344.015957 893.696228,366.326477 893.439653,401.972146 C893.439653,418.897368 900.428036,432.937609 914.404427,444.092869 C928.380817,455.248129 947.678792,460.825759 972.297976,460.825759 Z M1572.69311,169.636885 L1533.07161,208.873754 C1531.02014,205.796441 1528.00698,202.142132 1524.03213,197.910826 C1520.05728,193.679521 1510.88933,187.909558 1496.52826,180.60094 C1482.1672,173.292321 1466.78021,169.638012 1450.36729,169.638012 C1429.33828,169.638012 1412.28449,175.151406 1399.20555,186.17857 C1386.12661,197.205734 1379.58714,210.027746 1379.58714,224.644984 C1379.58714,239.774981 1386.63938,251.956137 1400.74425,261.188077 C1414.84912,270.420016 1431.9029,277.792871 1451.90599,283.306265 C1471.90908,288.819659 1491.91216,295.102381 1511.91525,302.154432 C1531.91834,309.206482 1548.97213,320.746407 1563.07699,336.774204 C1577.18186,352.802002 1584.2341,373.253437 1584.2341,398.12851 C1584.2341,430.696866 1571.79641,457.815687 1546.92065,479.484975 C1522.04489,501.154263 1488.57819,511.989095 1446.52054,511.989095 C1428.56893,511.989095 1411.70748,509.68111 1395.93582,505.06514 C1380.16415,500.449171 1367.14945,494.935777 1356.89133,488.524582 C1346.63321,482.113388 1337.72145,475.638334 1330.15606,469.099043 C1322.59066,462.559753 1317.01288,456.982123 1313.42271,452.366153 L1308.42193,445.057535 L1348.04343,405.821793 C1349.06936,407.360449 1350.47996,409.348006 1352.27523,411.784087 C1354.07051,414.220168 1358.10959,418.57957 1364.39249,424.862292 C1370.67538,431.145014 1377.40719,436.78688 1384.58791,441.787514 C1391.76863,446.788148 1401.00082,451.211785 1412.28449,455.058427 C1423.56816,458.905068 1434.9803,460.828389 1446.52054,460.828389 C1473.1912,460.828389 1493.6432,454.930331 1507.87617,443.133838 C1522.10913,431.337346 1529.22561,416.335445 1529.22561,398.128134 C1529.22561,382.485001 1522.10913,369.726848 1507.87617,359.853677 C1493.6432,349.980505 1476.58941,342.159127 1456.71442,336.389164 C1436.83944,330.619202 1416.90059,324.208008 1396.8975,317.155958 C1376.89442,310.103907 1359.77639,298.948647 1345.54342,283.690178 C1331.31046,268.431708 1324.19398,248.749601 1324.19398,224.643857 C1324.19398,196.17871 1336.18313,171.303638 1360.16106,150.019014 C1384.139,128.73439 1414.20787,118.09189 1450.36729,118.09189 C1464.98493,118.09189 1479.28214,119.822879 1493.25853,123.284856 C1507.23492,126.746834 1518.71092,130.978139 1527.68654,135.978773 C1536.66216,140.979407 1544.67609,146.108137 1551.72834,151.365338 C1558.78058,156.62254 1563.84559,160.78961 1566.92299,163.866923 L1572.69311,169.636885 Z M2086.15325,335.811793 L1778.79888,335.041713 C1780.85036,369.148725 1794.89098,398.639768 1820.92077,423.51484 C1846.95055,448.389913 1877.53219,460.827262 1912.66569,460.827262 C1936.25895,460.827262 1958.18541,455.57006 1978.44508,445.056032 C1998.70474,434.542004 2013.0658,424.027976 2021.52865,413.513949 L2034.99226,398.127383 L2070.38234,433.516484 C2068.84364,435.567901 2066.59983,438.452882 2063.65053,442.171427 C2060.70123,445.889972 2054.28986,452.172694 2044.41642,461.01997 C2034.54297,469.867245 2023.90018,477.688624 2012.48804,484.484482 C2001.0759,491.28034 1986.33016,497.563063 1968.25044,503.333025 C1950.17073,509.102987 1931.6421,511.987968 1912.66494,511.987968 C1861.11853,511.987968 1816.75283,492.818997 1779.56748,454.480679 C1742.38213,416.142362 1723.78964,369.662237 1723.78964,315.039929 C1723.78964,260.417622 1742.18979,213.937497 1778.99047,175.599179 C1815.79114,137.260861 1859.06705,118.09189 1908.8182,118.09189 C1960.36461,118.09189 2003.44818,135.978773 2038.06891,171.752538 C2072.68964,207.526303 2090,252.724339 2090,307.346646 L2086.15325,335.811793 Z M1908.81895,169.636134 C1875.73692,169.636134 1846.88631,181.304154 1822.26713,204.64057 C1797.64795,227.976986 1783.1584,255.672804 1778.79888,287.728024 L2034.99226,287.728024 C2030.88894,253.621012 2017.10489,225.412434 1993.63973,203.101914 C1970.17457,180.791394 1941.90097,169.636134 1908.81895,169.636134 Z" id="tease" fill="#F5E3E7"></path>
                <polygon id="+" fill="#1C1537" points="110.38945 855 85.6105499 855 85.6105499 783.342105 15 783.342105 15 758.657895 85.6105499 758.657895 85.6105499 687 110.38945 687 110.38945 758.657895 181 758.657895 181 783.342105 110.38945 783.342105"></polygon>
            </g>
        </g>
    </g>
</svg>